/* XPM */
static char *_[] = {
/* columns rows colors chars-per-pixel */
"23 26 27 1",
"  c #000008",
". c #02020A",
"X c #05050C",
"o c #08080F",
"O c #090910",
"+ c #0E0E14",
"@ c #101016",
"# c #17171C",
"$ c #1C1C21",
"% c #1D1D22",
"& c #1E1E23",
"* c #222227",
"= c #242428",
"- c #28282C",
"; c #2D2D30",
": c #323236",
"> c #39393B",
", c #3D3D40",
"< c #434345",
"1 c #474749",
"2 c #49494A",
"3 c #4B4B4C",
"4 c #505051",
"5 c #545454",
"6 c #575757",
"7 c #585858",
"8 c #5C5C5C",
/* pixels */
"                       ",
"                       ",
"    X*************X    ",
"    :8888888888887-    ",
"   %788888888888885+   ",
"  o58888888888888883X  ",
"  O78888888888888884   ",
"  O788888<,,,2888884   ",
"  O788888@   *888884X  ",
"  O788888@   *888884   ",
"  O788888@   *888884   ",
"  O788888@   *888884   ",
"  O788888@   *888884   ",
"  O788888@   *888884   ",
"  O788888@   *888884   ",
"  O788888@   *888884   ",
"  O788888@   -888884   ",
"  O788888=%#%7888884   ",
"  O78888888888888884   ",
"  O78888888888888884   ",
"   ;888888888888888&   ",
"    28888888888887>    ",
"    O111111111222#     ",
"                       ",
"                       ",
"                       "
};
