/* XPM */
static char *_[] = {
/* columns rows colors chars-per-pixel */
"23 26 10 1",
"  c #000008",
". c #05050C",
"X c #0A0A11",
"o c #0D0D13",
"O c #101017",
"+ c #222227",
"@ c #2C2C31",
"# c #474749",
"$ c #5B5B5B",
"% c #5C5C5C",
/* pixels */
"                       ",
"                       ",
"        O+++++.        ",
"        @%%%%$o        ",
"        @%%%%$o        ",
"        @%%%%$o        ",
"        @%%%%$o        ",
"        @%%%%$o        ",
"        @%%%%$o        ",
"        @%%%%$o        ",
"        @%%%%$o        ",
"        @%%%%$o        ",
"        @%%%%$o        ",
"        @%%%%$o        ",
"        @%%%%$o        ",
"        @%%%%$o        ",
"        @%%%%$o        ",
"        @%%%%$o        ",
"        @%%%%$o        ",
"        @%%%%$o        ",
"        @%%%%$o        ",
"        @%%%%$o        ",
"        +#####X        ",
"                       ",
"                       ",
"                       "
};
