/* XPM */
static char *_[] = {
/* columns rows colors chars-per-pixel */
"23 26 31 1",
"  c #000008",
". c #03030A",
"X c #03030B",
"o c #05050D",
"O c #08080F",
"+ c #090910",
"@ c #0C0C13",
"# c #101016",
"$ c #111118",
"% c #18181E",
"& c #1A1A20",
"* c #1E1E23",
"= c #222227",
"- c #232328",
"; c #26262B",
": c #27272C",
"> c #2B2B2F",
", c #2C2C30",
"< c #333337",
"1 c #353538",
"2 c #3A3A3D",
"3 c #3D3D41",
"4 c #414144",
"5 c #444446",
"6 c #474749",
"7 c #49494B",
"8 c #4F4F51",
"9 c #515152",
"0 c #545454",
"q c #585858",
"w c #5C5C5C",
/* pixels */
"                       ",
"                       ",
"    o==-========-+     ",
"    <wwwwwwwwwwww4-    ",
"   *qwwwwwwwwwwwww2    ",
"  O0wwwwwwwwwwwwwwq$   ",
"  +qwwwwwwwwwwwwwww&   ",
"  +qwwwww4334qwwwww9   ",
"  +qwwwww#  +qwwwww9   ",
"   %%%%&%o $6qwwwww9   ",
"         o<0wwwwwww&   ",
"       @>qqwwwwwwwq@   ",
"     #,wwwwwwwwwwq,    ",
"    :7wwwwwwwwww1,     ",
"   *qwwwwwwwww:&       ",
"  o9wwwwwww6@@         ",
"  +qwwwww0;            ",
"  &qwwwww=%%%%%%%%%$   ",
"  5wwwwwwwwwwwwwwww9   ",
"  5wwwwwwwwwwwwwwww9   ",
"  5wwwwwwwwwwwwwwww8   ",
"  5wwwwwwwwwwwwwwww9o  ",
"  166676666666666673   ",
"                       ",
"                       ",
"                       "
};
