/* XPM */
static char *_[] = {
/* columns rows colors chars-per-pixel */
"23 26 29 1",
"  c #000008",
". c #010108",
"X c #03030B",
"o c #04040C",
"O c #08080F",
"+ c #0B0B12",
"@ c #0F0F16",
"# c #17171C",
"$ c #1B1B21",
"% c #1D1D22",
"& c #1F1F25",
"* c #212126",
"= c #222227",
"- c #2D2D31",
"; c #333337",
": c #38383B",
"> c #3C3C3E",
", c #3F3F41",
"< c #404042",
"1 c #434345",
"2 c #444445",
"3 c #474749",
"4 c #4E4E4F",
"5 c #525253",
"6 c #535354",
"7 c #555556",
"8 c #575758",
"9 c #5A5A5A",
"0 c #5C5C5C",
/* pixels */
"                       ",
"                       ",
"          o*==***=+    ",
"          ;0000000%    ",
"        o290000000% ...",
"        <000000000% ...",
"       *0000000000%....",
"     o*70000000009%....",
".X   -000000000000%....",
".   %900009:700000%....",
".. +5000094+500000%....",
"..&9000009@o500000%....",
".o70000001$%700000;@   ",
". 60000000000000000>   ",
" o60000000000000000>   ",
" X60000000000000000>   ",
" o50000000000000000>...",
" o70000000000000000>...",
"  -;;;;;;;;;800000,*...",
"    X      X600000%....",
"...........o600000%....",
"........... 500009%....",
"............<32323#....",
"................  .....",
"................       ",
"................       "
};
