/* XPM */
static char *_[] = {
/* columns rows colors chars-per-pixel */
"23 26 27 1",
"  c #000008",
". c #06060D",
"X c #090910",
"o c #0B0B12",
"O c #0E0E14",
"+ c #101017",
"@ c #121218",
"# c #15151C",
"$ c #18181E",
"% c #1B1B21",
"& c #1C1C21",
"* c #222227",
"= c #242429",
"- c #2B2B2F",
"; c #2E2E32",
": c #323236",
"> c #353539",
", c #3A3A3D",
"< c #3D3D40",
"1 c #474749",
"2 c #48484A",
"3 c #4E4E4F",
"4 c #505051",
"5 c #515152",
"6 c #565656",
"7 c #595959",
"8 c #5C5C5C",
/* pixels */
"                       ",
"                       ",
"  %****************.   ",
"  28888888888888887O   ",
"  28888888888888888O   ",
"  28888888888888888+   ",
"  28888888888888887O   ",
"  2888883<<<<<<<<<,X   ",
"  2888882::::::::O     ",
"  2888888888888882-    ",
"  28888888888888886o   ",
"  28888888888888888#   ",
"  288888888888888883   ",
"  =;;;;;;;;;58888883   ",
"            &7888883   ",
"  ,54555-   o7888883   ",
"  288888>   +7888883   ",
"  2888887*$$38888873   ",
"  28888888887888888:   ",
"  *8888888888888888O   ",
"  o788888888888888,    ",
"   -68888888888885.    ",
"    O111111111212+     ",
"                       ",
"                       ",
"                       "
};
