/* XPM */
static char *_[] = {
/* columns rows colors chars-per-pixel */
"23 26 30 1",
"  c #000008",
". c #04040C",
"X c #07070E",
"o c #090910",
"O c #0C0C13",
"+ c #0E0E15",
"@ c #101017",
"# c #121219",
"$ c #15151B",
"% c #18181E",
"& c #19191E",
"* c #1A1A20",
"= c #1E1E23",
"- c #222227",
"; c #29292E",
": c #303034",
"> c #36363A",
", c #3C3C3F",
"< c #3D3D40",
"1 c #414143",
"2 c #414144",
"3 c #474749",
"4 c #48484A",
"5 c #4E4E4F",
"6 c #515152",
"7 c #535353",
"8 c #535354",
"9 c #585858",
"0 c #5B5B5B",
"q c #5C5C5C",
/* pixels */
"                       ",
"                       ",
"     &-----------.     ",
"    :6qqqqqqqqqqq,=    ",
"   ;0qqqqqqqqqqqqq6.   ",
"   >qqqqqqqqqqqqqq0O   ",
"  +qqqqqqqqqqqqqqqq3   ",
"  +qqqqq01<<<5qqqqq4   ",
"  +qqqqq0o   :qq00q4   ",
"  +qqqqq0o   +&&%&&#   ",
"  oqqqqq086886686$.    ",
"  +qqqqq0qqqqqqq000$   ",
"  +qqqqqqqqqqqqqqqq4   ",
"  +qqqqqqqqqqqqqqqq4   ",
"  oqqqqqqq0qq0qqqqq8$  ",
"  +qqqqqq3++o>qqqqqq=  ",
"  +0qqqq9#   .7qqqqq=  ",
"  +qqqqq05&&&<qqqqqq=  ",
"  +qqqqqqqqqqqqqqqq8@  ",
"  .2qqqqqqqqqqqqqqq4   ",
"   >q00qqqqqqqqqqq0&   ",
"   .50qqqqqqqqqqqq;    ",
"     :33333343443<     ",
"                       ",
"                       ",
"                       "
};
