/* XPM */
static char *_[] = {
/* columns rows colors chars-per-pixel */
"23 26 32 1",
"  c #000008",
". c #04040B",
"X c #06060D",
"o c #07070E",
"O c #0A0A11",
"+ c #0E0E15",
"@ c #121218",
"# c #15151B",
"$ c #18181E",
"% c #1C1C21",
"& c #1D1D22",
"* c #222227",
"= c #232328",
"- c #242428",
"; c #27272C",
": c #28282C",
"> c #2D2D32",
", c #333337",
"< c #37373A",
"1 c #39393B",
"2 c #3D3D40",
"3 c #434345",
"4 c #454547",
"5 c #474749",
"6 c #48484A",
"7 c #4F4F50",
"8 c #515152",
"9 c #545455",
"0 c #555555",
"q c #585858",
"w c #59595A",
"e c #5C5C5C",
/* pixels */
"                       ",
"                       ",
"   *************===O   ",
"  X0eeeeeeeeeeeeeeq%   ",
"  X0eeeeeeeeeeeeeee#   ",
"  X0eeeeeeeeeeeeeee%   ",
"  X0eeeeeeeeeeeeeeq&   ",
"  .122222223eeeeee0@   ",
"           ,eeeeeq-    ",
"           8eeeeq<     ",
"          ;qeeeeq-     ",
"         Oqeeeee5      ",
"         &qeeeee+      ",
"        +8eeeee6O      ",
"       X4qeeee0@       ",
"       X0eeeee*        ",
"       2eeeeeq#        ",
"      @eeeeeq<         ",
"      >eeeee2X         ",
"     &qeeeee-          ",
"    O0eeeee7X          ",
"    +qeeeeq+           ",
"    <55555:            ",
"                       ",
"                       ",
"                       "
};
