/* XPM */
static char *_[] = {
/* columns rows colors chars-per-pixel */
"23 26 35 1",
"  c #000008",
". c #03030B",
"X c #06060E",
"o c #08080F",
"O c #0B0B12",
"+ c #0C0C12",
"@ c #0E0E14",
"# c #141419",
"$ c #18181E",
"% c #1B1B21",
"& c #1C1C21",
"* c #222226",
"= c #232328",
"- c #252529",
"; c #26262C",
": c #28282D",
"> c #2C2C31",
", c #333337",
"< c #363639",
"1 c #39393B",
"2 c #39393C",
"3 c #3D3D40",
"4 c #3F3F41",
"5 c #424244",
"6 c #474749",
"7 c #49494A",
"8 c #4B4B4D",
"9 c #4D4D4E",
"0 c #4F4F51",
"q c #515152",
"w c #535354",
"e c #565657",
"r c #585858",
"t c #5B5B5B",
"y c #5C5C5C",
/* pixels */
"                       ",
"                       ",
"     #=*==*==**=*O     ",
"    X8yyyyyyyyyyy5-    ",
"    4yyyyyyyyyyyyye@   ",
"   *tyyyyyyyyyyyyyy#   ",
"   -yyyyyyyyytyyyyyq   ",
"   -yyyy044244eyyyyq   ",
"   -yyyy2     8yyyyq   ",
"   -yyyyw+   %tyyyyq   ",
"   -yyyyyeqqqettyyy9   ",
"    9yyyyytyyyytyyy#   ",
"   Oqyyyyyyyyyyyyyy=   ",
"   -yyyyyyyyyyyyyyyq   ",
"  X7yyyyy-%%%,yyyyyq   ",
"  Otyyyy4    X9yyyyy-  ",
"  Oryyyy1     8yyyyy>  ",
"  oryyyy5$$$$$0yyyyy>  ",
"  oryyyyyyyyyyyyyyye$  ",
"   1yyyyyyyyyyyyyyyq   ",
"   -yttyyyyyyyyyyyy&   ",
"    6tyyyyyyyyyyyy1    ",
"     :666666667665X    ",
"                       ",
"                       ",
"                       "
};
