/* XPM */
static char *_[] = {
/* columns rows colors chars-per-pixel */
"23 26 39 1",
"  c #000008",
". c #010109",
"X c #03030B",
"o c #06060D",
"O c #08080F",
"+ c #0B0B11",
"@ c #0C0C13",
"# c #0E0E15",
"$ c #101016",
"% c #121218",
"& c #17171C",
"* c #18181E",
"= c #19191F",
"- c #1B1B21",
"; c #1C1C21",
": c #212126",
"> c #222226",
", c #222227",
"< c #252529",
"1 c #26262C",
"2 c #28282D",
"3 c #2B2B31",
"4 c #2C2C31",
"5 c #303033",
"6 c #313135",
"7 c #38383B",
"8 c #39393B",
"9 c #3E3E40",
"0 c #414143",
"q c #424244",
"w c #49494A",
"e c #4D4D4E",
"r c #4F4F50",
"t c #515152",
"y c #535354",
"u c #585858",
"i c #5A5A5B",
"p c #5B5B5B",
"a c #5C5C5C",
/* pixels */
"                       ",
"                       ",
"     ,,<,,,,,,,,<$     ",
"   +7iaaaaaaaaaaaw+    ",
"   qaaaaaaaaaaaaaa0    ",
"   taaaaaaaaaaaaaai,   ",
"  3aaaaaaaaaaiaaaaa1   ",
"  4aaaaaae807iaaaaai+  ",
"  4aaaaay$   taaaaauO  ",
"  4aaaaay;   taaaaau+  ",
"  4aaaaaaitttiaaaaauo  ",
"  1iaaaaaaaaaaaaaaau+  ",
"   taaaaaaaaaaaaaaau+  ",
"   6aaaaaaaaaaaaaaauO  ",
"   o;5aaaaaaa6aaaaauO  ",
"     o##$@@@@$aaaaau+  ",
"   eiiiia,   =aaaaauO  ",
"   taaaia5&==taaaaauO  ",
"   taaaaaaaaaaaaaaa0X  ",
"  Xtaaaaaaaaaaaaaaa<  X",
"   =aaaaaaaaaaaaaaro   ",
"   X7uaaaaaaaaaaau$    ",
"     =0wqwwqwwqww2     ",
"   X     X   X         ",
"                       ",
"                       "
};
