/* XPM */
static char *B[] = {
/* columns rows colors chars-per-pixel */
"23 26 25 1",
"  c #000008",
". c #03030B",
"X c #07070E",
"o c #0F0F16",
"O c #111118",
"+ c #14141A",
"@ c #15151B",
"# c #19191F",
"$ c #1C1C21",
"% c #212126",
"& c #232328",
"* c #252529",
"= c #2B2B2F",
"- c #2D2D31",
"; c #303034",
": c #414143",
"> c #454547",
", c #4E4E4F",
"< c #4F4F51",
"1 c #505051",
"2 c #515153",
"3 c #555556",
"4 c #575758",
"5 c #5A5A5A",
"6 c #5C5C5C",
/* pixels */
"                       ",
"                       ",
"   XOOOOOOOOOOOOOOoX   ",
"   &666666666666663@   ",
"   *666666666666665;X  ",
"   &666666666666666>X  ",
"   *666666666666665>X  ",
"   *6666661<1466666>X  ",
"   &666661o X-55666>X  ",
"   &666661o  *36666>X  ",
"   *666665>::166666:X  ",
"   &666666666666665$   ",
"   *666666666666664$   ",
"   &666666666666666>o  ",
"   *666666566666665>.  ",
"   &666663-%%-36666>X  ",
"  .&666662o  O<5666>X  ",
"   &666662+XX$<6666>X  ",
"  .&666666665666666>X  ",
"   &666666666666666>X  ",
"   &666666666666665>X  ",
"  .&666666666666666>X  ",
"   &444544645454543$   ",
"    .. ...  .. .       ",
"                       ",
"                       "
};
