/* XPM */
static char *D[] = {
/* columns rows colors chars-per-pixel */
"23 26 22 1",
"  c #000008",
". c #04040C",
"X c #07070E",
"o c #0A0A11",
"O c #0C0C13",
"+ c #111118",
"@ c #1B1B20",
"# c #242429",
"$ c #27272B",
"% c #2A2A2E",
"& c #37373A",
"* c #38383A",
"= c #404042",
"- c #4B4B4D",
"; c #4C4C4E",
": c #4F4F51",
"> c #505052",
", c #545455",
"< c #555556",
"1 c #585859",
"2 c #5B5B5B",
"3 c #5C5C5C",
/* pixels */
"                       ",
"                       ",
"   +++++++++++++++o    ",
"  o<33333333333333=o   ",
"  o,223333333333333&.  ",
"  o,3333333333333333%  ",
"  o<3333333333333333*  ",
"  o<33333<:::>233333*  ",
"  o<33333$   O;33333&  ",
"  o>33333$   O;33333&. ",
"  o<33333$   O;33333&  ",
"  o<33333$   O;33333&  ",
"  o<33333$   O-33333&. ",
"  o<33333%   O-33333&  ",
"  o<33333$   O-33333&  ",
"  o,33333$   O-33333*  ",
"  o,23333$   O;33333*  ",
"  o,33333%.XX+;33333&  ",
"  o,3333333333333333*  ",
"  o<3333333333333333*  ",
"  o<333333333332332<+  ",
"  o<333333333332333$o  ",
"  o><22<2<22222221*.   ",
"   . .  .              ",
"                       ",
"                       "
};
