/* XPM */
static char *E[] = {
/* columns rows colors chars-per-pixel */
"23 26 22 1",
"  c #000008",
". c #03030B",
"X c #07070E",
"o c #0B0B12",
"O c #111117",
"+ c #111118",
"@ c #1B1B21",
"# c #222227",
"$ c #26262B",
"% c #28282D",
"& c #2C2C31",
"* c #2E2E32",
"= c #2F2F33",
"- c #343437",
"; c #3B3B3E",
": c #434345",
"> c #4C4C4E",
", c #4F4F51",
"< c #505051",
"1 c #555556",
"2 c #585859",
"3 c #5C5C5C",
/* pixels */
"                       ",
"                       ",
"   O++++++++++++++o    ",
"  o<33333333333333-.   ",
"  o<33333333333333-    ",
"  o<33333333333333-    ",
"  o<33333333333333-.   ",
"  o<333331,,,,,,<<*    ",
"  o<33333%             ",
"  o<33333:*******$o    ",
"  o<3333333333333>O    ",
"  o>3333333333333>O    ",
"  o<3333333333333>+    ",
"  o<3333333333333>+    ",
"  o<3333333333333<+    ",
"  o<33333;#######@.    ",
"  o<33333$             ",
"  o<33333*o o.X.XX.    ",
"  o<33333333233333-.   ",
"  o<33333333333333-.   ",
"  o<33333333333333-.   ",
"  o<33333333333333-.   ",
"  o<23313223223332-.   ",
"     .   .             ",
"                       ",
"                       "
};
