/* XPM */
static char *F[] = {
/* columns rows colors chars-per-pixel */
"23 26 18 1",
"  c #000008",
". c #03030B",
"X c #05050C",
"o c #0D0D14",
"O c #0F0F16",
"+ c #111118",
"@ c #1F1F25",
"# c #212126",
"$ c #2E2E32",
"% c #3E3E41",
"& c #464648",
"* c #49494B",
"= c #4D4D4E",
"- c #4F4F51",
"; c #525253",
": c #575757",
"> c #585859",
", c #5C5C5C",
/* pixels */
"                       ",
"                       ",
"   O++++++++++++++o    ",
"  X;,,,,,,,,,,,,,,&.   ",
"   ;,,,,,,,,,,,,,,*    ",
"  X;,,,,,,,,,,,,,,&    ",
"   ;,,,,,,,,,,,,>,&.   ",
"  X;,,,,,>-----;==&    ",
"  X;,,,,,%             ",
"  .;,,,,,=$$$$$$$$.    ",
"  X;,,,,,,,,,,,,,:o    ",
"   ;,,,,,,,,,,,,,:o    ",
"  .;,,,,,,,,,,,,,>O    ",
"  .;,,,,,,,,,,,,,>o    ",
"  .;,,,,,,,,,,,,,;O    ",
"  .;,,,,,*#######@.    ",
"  .;,,,,,%             ",
"  .;,,,,,%             ",
"  .;,,,,,%             ",
"  .;,,,,,%             ",
"  .;,,,,,%             ",
"  .;,,,,,%             ",
"  X->>>>>%             ",
"    X . .              ",
"                       ",
"                       "
};
