/* XPM */
static char *G[] = {
/* columns rows colors chars-per-pixel */
"23 26 35 1",
"  c #000008",
". c #03030B",
"X c #07070E",
"o c #08080F",
"O c #0A0A11",
"+ c #0B0B12",
"@ c #0F0F15",
"# c #101016",
"$ c #111118",
"% c #14141A",
"& c #16161C",
"* c #19191F",
"= c #1A1A20",
"- c #1C1C21",
"; c #212126",
": c #26262A",
"> c #2A2A2F",
", c #2D2D31",
"< c #303034",
"1 c #3A3A3D",
"2 c #3B3B3E",
"3 c #414143",
"4 c #424244",
"5 c #434344",
"6 c #464647",
"7 c #474749",
"8 c #4F4F51",
"9 c #515152",
"0 c #535354",
"q c #545455",
"w c #585859",
"e c #595959",
"r c #5B5B5B",
"t c #5B5B5C",
"y c #5C5C5C",
/* pixels */
"                       ",
"     $$$$$$$$$$$$@     ",
"   %>yyyyyyyyyyyy9;o   ",
"  @7yyyyyyyyyyyyrrr<   ",
"  =qyyyyyyyyyyyyyyy5   ",
"  -qyyyyyyyyyyyyyyyr,  ",
" X4yyyyyyq8889yyyyyt,  ",
" X4yyyyy0*   Oryyyyy,  ",
" X5yyyyy3    Orryyyy,  ",
" O5yyyyy4    orryyyy,  ",
" X5yyyyy4X    O+O+#Oo  ",
" X5yyyyy4              ",
" X3yyyyy4    X$&&&&&O  ",
" X3yyyyy4    Oryyyyr,  ",
" o5yyyyy4    Xrryyyr,  ",
" o5yyyyyr-   Xrryyyy,  ",
" .5yyyyyr:XXX5yyyyyr,  ",
" o2yyyyyyyrryyyyyyyr,  ",
"  *qyyyyyyrryyyyyyyt,  ",
"  +5yyyyyttryyyyyyyy,  ",
"   #9yyyrryrrrytyyyr,  ",
"    %yqrrrrrrryryyyr,  ",
"          X  O9qryyr,  ",
"               #25rr,  ",
"                 O,,&  ",
"                       "
};
