/* XPM */
static char *H[] = {
/* columns rows colors chars-per-pixel */
"23 26 25 1",
"  c #000008",
". c #02020A",
"X c #04040C",
"o c #08080F",
"O c #0F0F16",
"+ c #101017",
"@ c #111118",
"# c #15151B",
"$ c #1A1A20",
"% c #1C1C22",
"& c #212126",
"* c #28282D",
"= c #2A2A2E",
"- c #2E2E32",
"; c #333337",
": c #3C3C3F",
"> c #434345",
", c #505051",
"< c #535354",
"1 c #565656",
"2 c #575758",
"3 c #585859",
"4 c #5A5A5B",
"5 c #5B5B5B",
"6 c #5C5C5C",
/* pixels */
"                ..     ",
"                ..     ",
"  XO@@@@@o    X@@@@@+..",
"  #<66664=    %666661+ ",
"  #<66664=    %666665+ ",
"  #<66665=    %666661+ ",
"  #<66665=    %666551+ ",
"  #<66665=    %666651+ ",
"  #<66665=    %666662@ ",
"  #<66665>----:666665@ ",
"  #<66665566666666661@.",
"  #<66665566666666661@.",
"  #<66666666666666662+ ",
"  #<66666666666666662+ ",
"  #<66666666666666651+ ",
"  #<66665:&&&&;666651@ ",
"  #<66665=    %66666<@ ",
"  #<66665=    %666662@ ",
"  #<66665=    %666664# ",
"  #<66665=    %66666<@ ",
"  #<66664=    %566652@.",
"  #<66664=    %56665<@.",
"  #,44546=    $4522<1+.",
"               XX.... .",
"                .      ",
"                .      "
};
