/* XPM */
static char *I[] = {
/* columns rows colors chars-per-pixel */
"23 26 12 1",
"  c #000008",
". c #04040B",
"X c #0F0F16",
"o c #111118",
"O c #14141A",
"+ c #15151B",
"@ c #444447",
"# c #484849",
"$ c #4E4E50",
"% c #525253",
"& c #585859",
"* c #5C5C5C",
/* pixels */
"                       ",
"                       ",
"        XooooX.        ",
"        #****%+        ",
"       .#****%+        ",
"       .#****%+        ",
"        #****%+        ",
"        #****%+        ",
"       .#****%+        ",
"        #****%+        ",
"       .#****%+        ",
"       .#****%+        ",
"        #****%+        ",
"       .#****%+        ",
"       .#****%+        ",
"        #****%+        ",
"       .#****%+        ",
"        #****%+        ",
"       .#****%+        ",
"       .#****%+        ",
"        #****%+        ",
"       .#****%+        ",
"       .@&&*&#+        ",
"        .. ..          ",
"                       ",
"                       "
};
