/* XPM */
static char *J[] = {
/* columns rows colors chars-per-pixel */
"23 26 19 1",
"  c #000008",
". c #04040B",
"X c #06060E",
"o c #0D0D13",
"O c #101017",
"+ c #111118",
"@ c #14141A",
"# c #1B1B21",
"$ c #212126",
"% c #2F2F33",
"& c #343438",
"* c #3A3A3C",
"= c #505051",
"- c #535354",
"; c #575757",
": c #585859",
"> c #59595A",
", c #5B5B5C",
"< c #5C5C5C",
/* pixels */
"         XO++++OX      ",
"         $;<<<<>#      ",
"         $;<<<<>#      ",
"         $;<<<<>#      ",
"         $;<<<<>#      ",
"         $;<<<<>#      ",
"         $;<<<<>#      ",
"         $;<<<<>#      ",
"         $;<<<<>#      ",
"         $;<<<<>#      ",
"         $;<<<<>#      ",
"         $;<<<<>#      ",
"         $;<<<<>#      ",
"         $;<<<<>#      ",
"         $;<<<<>#      ",
"         $;<<<<>#      ",
"         $><<<<>#      ",
"         %>><<<>#      ",
"      #&*-<<<<<>#      ",
"      %<<<<<<<<>#      ",
"      %,<<<<<<<>#      ",
"      %,<<<<<<<>#      ",
"      %,<<<<<<<=@      ",
"      %,<<<<<<<*       ",
"      %,<<<<<>%+       ",
"      Xooooooo.        "
};
