/* XPM */
static char *K[] = {
/* columns rows colors chars-per-pixel */
"23 26 37 1",
"  c #000008",
". c #03030A",
"X c #06060E",
"o c #08080F",
"O c #090911",
"+ c #0D0D14",
"@ c #0F0F16",
"# c #111117",
"$ c #111118",
"% c #14141A",
"& c #16161C",
"* c #1A1A1F",
"= c #1A1A20",
"- c #1E1E24",
"; c #232328",
": c #242428",
"> c #26262A",
", c #2B2B2F",
"< c #2B2B30",
"1 c #2D2D31",
"2 c #323236",
"3 c #343437",
"4 c #353538",
"5 c #38383B",
"6 c #404042",
"7 c #434345",
"8 c #474749",
"9 c #49494B",
"0 c #4A4A4C",
"q c #4D4D4F",
"w c #4F4F50",
"e c #525253",
"r c #565657",
"t c #575758",
"y c #585858",
"u c #5B5B5B",
"i c #5C5C5C",
/* pixels */
"         X#$$$$#X      ",
"                       ",
"    ####$$O  X#$$$##X  ",
"   @qiiiiu3  <tiuuuu;  ",
"   +quiiiu4 o8uuiiiq#  ",
"   +quiiiu3 :uiuiir%   ",
"   @qiiiiu3$eiiiuueO   ",
"   @qiiiiu4*tiiiuu*    ",
"   +qiiiii7qiiiiu5.    ",
"   +qiiiiiiiiiiiy:     ",
"   +qiiiiiiiiiiu5X     ",
"   @qiiiiiiiiuuu1      ",
"   +qiiiiiiiiiiqo      ",
"   +qiiiiiiiiiuu3X     ",
"   +qiiiiiiiiiuiq%     ",
"   +qiiiiiiiiiiir,X    ",
"   +quiiii69iiiiir&    ",
"   +quiiiu4&riiiiu-    ",
"   +qiiiiu2#qiiiiir$   ",
"   +qiiiiu4 :eiiiii6   ",
"   +qiiiuu2 X9uuiiuq&  ",
"   @qiiiuu4  :ruiiuu9X ",
"   @9uuruu2  =ruuuuuqO ",
"     X   .             ",
"                       ",
"                       "
};
