/* XPM */
static char *L[] = {
/* columns rows colors chars-per-pixel */
"23 26 15 1",
"  c #000008",
". c #02020A",
"X c #06060E",
"o c #0B0B12",
"O c #0F0F16",
"+ c #111118",
"@ c #3B3B3E",
"# c #3D3D3F",
"$ c #434346",
"% c #464649",
"& c #4A4A4C",
"* c #4E4E4F",
"= c #585859",
"- c #5B5B5B",
"; c #5C5C5C",
/* pixels */
"         X++++++o      ",
"                       ",
"    O+++++o            ",
"   o*;;;;-@            ",
"   o*-;;;-@            ",
"   X*-;;;-@            ",
"   o*;;;;-@            ",
"   o*;;;;-@            ",
"   X*;;;;-@            ",
"   o*;;;;-@            ",
"   o*;;;;-@            ",
"   o*;;;;-@            ",
"   o*;;;;-@            ",
"   o*;;;;-@            ",
"   o*;;;;-@            ",
"   X*;;;;-@            ",
"   o*-;;;;@            ",
"   X*-;;;;@XXXXXXXXX   ",
"   o*;;;;;;;;;;;;;;%   ",
"   o*;;;;;;;;;;;--;%   ",
"   X*;;;;;;;;;;;;;-%   ",
"   o*;;;;;;;;;;;;;;%   ",
"   o&--=-==-==-===-$   ",
"        .. .. .        ",
"                       ",
"                       "
};
