/* XPM */
static char *M[] = {
/* columns rows colors chars-per-pixel */
"23 26 31 1",
"  c #000008",
". c #04040B",
"X c #06060E",
"o c #09090F",
"O c #0A0A11",
"+ c #0C0C13",
"@ c #0D0D14",
"# c #111117",
"$ c #111118",
"% c #15151B",
"& c #19191F",
"* c #1C1C21",
"= c #1F1F24",
"- c #222227",
"; c #27272B",
": c #29292E",
"> c #313134",
", c #39393B",
"< c #3A3A3D",
"1 c #3E3E41",
"2 c #414143",
"3 c #464648",
"4 c #4A4A4B",
"5 c #4B4B4C",
"6 c #4C4C4D",
"7 c #515151",
"8 c #535354",
"9 c #545455",
"0 c #575757",
"q c #5A5A5B",
"w c #5C5C5C",
/* pixels */
"         X$$$$$$.      ",
"                       ",
"  @$$$$$@     O@####+  ",
" O3wwwww1    X>qwwwq2O ",
" O3wwwww6#   %6wwwww2O ",
" O3wwwww9*   -9wwwwq2O ",
" O3wwwwww<X X<qwwwww2O ",
" O3wwwwww7& o2wwwwww2O ",
" O3wwwwww9- :qwwwwwq2o ",
" o3wwwwwwq,O3wwwwwww2o ",
" O3wwwwwww6:8wwwwwwq2o ",
" O3wwwwwww9<qwwwwwww2+ ",
" O3wwwwwwwwqwwwwwwwq2O ",
" O3wwwwwwwwwwwwwwwww2+ ",
" O3wwwwwwwwwwwwwwwwq2O ",
" O3www85qwwwwwq,wwww2O ",
" O3www7-6wwwwwq;qwwq2O ",
" O3www7&4wwwww,&qwww2o ",
" O3www6&*qwwwq>&wwwq2O ",
" O3www6&%7www6%%qwww2O ",
" O3www7%O2wwq1o%wwwq2O ",
" O3qww6& :qq9; %qwwq2O ",
" o3qqq6% +2q7- %0qqq1o ",
"     .     X       .   ",
"                       ",
"                       "
};
