/* XPM */
static char *MI[] = {
/* columns rows colors chars-per-pixel */
"23 26 11 1",
"  c #000008",
". c #05050D",
"X c #06060E",
"o c #0A0A11",
"O c #111118",
"+ c #303034",
"@ c #38383B",
"# c #48484A",
"$ c #4F4F51",
"% c #505052",
"& c #5C5C5C",
/* pixels */
"                       ",
"                       ",
"                       ",
"   .                   ",
"   .                   ",
"                       ",
"   .                   ",
"    .                  ",
"                       ",
"                       ",
"    oOOOOOOOOOOOOOO    ",
"    @&&&&&&&&&&&&&%.   ",
"    @&&&&&&&&&&&&&%.   ",
"    @&&&&&&&&&&&&&%.   ",
"    @&&&&&&&&&&&&&%.   ",
"    +$$$$%%%%%%%%%#.   ",
"                       ",
"                       ",
"                       ",
"                       ",
"                       ",
"                       ",
"                       ",
"                       ",
"                       ",
"                       "
};
