/* XPM */
static char *N[] = {
/* columns rows colors chars-per-pixel */
"23 26 31 1",
"  c #000008",
". c #03030B",
"X c #06060E",
"o c #07070F",
"O c #0B0B12",
"+ c #0C0C13",
"@ c #0D0D15",
"# c #101017",
"$ c #111118",
"% c #17171D",
"& c #18181D",
"* c #212125",
"= c #28282C",
"- c #2A2A2E",
"; c #2B2B2F",
": c #38383B",
"> c #3E3E40",
", c #404043",
"< c #414144",
"1 c #444446",
"2 c #464648",
"3 c #48484B",
"4 c #4C4C4D",
"5 c #4E4E50",
"6 c #515153",
"7 c #555556",
"8 c #575757",
"9 c #585859",
"0 c #595959",
"q c #5B5B5B",
"w c #5C5C5C",
/* pixels */
"         X#$$$$#X      ",
"                       ",
"  +$$$$$$#X  O$$$$$@   ",
"  ,wwwwww0=  =wwwww5+  ",
"  ,wwwwwww2O =wwwww5O  ",
"  ,wwwwww08*X=wwwww5O  ",
"  ,wwwwwwww; =wwwww5O  ",
"  ,wwwwwwwww&;wwwww5O  ",
"  <wwwwwwwww5;wwwww5+  ",
"  <wwwwwwwww81wwwww5+  ",
"  >wwwwwwwwwwwwwwww5O  ",
"  <wwwwwwwwwwwwwwww5O  ",
"  <qwwwwwwwwwwwwwww5@  ",
"  <wwwwwwwwwwwwwwww5@  ",
"  >wwwwwwwwwwwwwwww5+  ",
"  <wwwwwwwwwwwwwwww4O  ",
"  <qwwww6:wwwwwwwww5+  ",
"  <wwwww4@1wwwwwwww5O  ",
"  <wwwww4@>0wwwwwww5O  ",
"  >wwwww3X%8wwwwwww5O  ",
"  <qwwww4oO<qwwqwww5O  ",
" .>qwwww4o @6wwqwww5O  ",
"  >088083o .58800004O  ",
"   .....    ....       ",
"                       ",
"                       "
};
