/* XPM */
static char *O[] = {
/* columns rows colors chars-per-pixel */
"23 26 32 1",
"  c #000008",
". c #02020A",
"X c #04040B",
"o c #05050D",
"O c #0D0D14",
"+ c #0E0E15",
"@ c #111117",
"# c #111118",
"$ c #16161C",
"% c #18181E",
"& c #1C1C22",
"* c #1D1D22",
"= c #1E1E23",
"- c #222228",
"; c #27272B",
": c #29292D",
"> c #323236",
", c #343438",
"< c #3C3C3F",
"1 c #424244",
"2 c #444446",
"3 c #49494B",
"4 c #4F4F50",
"5 c #525252",
"6 c #525254",
"7 c #555555",
"8 c #555556",
"9 c #585858",
"0 c #585859",
"q c #5B5B5B",
"w c #5B5B5C",
"e c #5C5C5C",
/* pixels */
"         o#####@o      ",
"                       ",
"    o###########@#X    ",
"   o,qeeeeeeeeeeee>X   ",
"   -8eeeeeeeeeeeeeq;   ",
"  #5eeeeeeeeeeeeeeq5%  ",
"  $qeeeeeewwqqeeeeee*  ",
"  $qeeeew64458qeeeee*  ",
"  $qeeeeq$   *8qeeeq*  ",
"  $qeeeeq$   *8qeeeq*  ",
"  $qeeeeq&   *8qeeqq*  ",
"  $qeeee9$   *8qqqqq*  ",
"  $qeeee9%   *8qeeeq*  ",
"  $qeeee9%   *9qeeeq*  ",
"  $qeeqqq$   *8qeeqq*  ",
"  $qeeqqq%   *9qeeqq-  ",
"  $qeeeeq$   *8eeeqq*  ",
"  $qeeeeq*oo+1eeeeqq*  ",
"  $qeeeeeeeeeeeeeeeq*  ",
"  $qeeeeeeeeeeeeeeeq*  ",
"  O2eqeeqqeeeeqqeee3+  ",
"   %5qeeqqeeeqqqee8$   ",
"    :9qqeqqqqqeqe<O    ",
"              X        ",
"                       ",
"                       "
};
