/* XPM */
static char *P[] = {
/* columns rows colors chars-per-pixel */
"23 26 27 1",
"  c #000008",
". c #02020A",
"X c #05050C",
"o c #06060E",
"O c #07070E",
"+ c #090910",
"@ c #0D0D13",
"# c #0E0E15",
"$ c #111117",
"% c #111118",
"& c #16161C",
"* c #28282C",
"= c #2D2D32",
"- c #303034",
"; c #3F3F41",
": c #414143",
"> c #434345",
", c #454547",
"< c #4B4B4D",
"1 c #4F4F51",
"2 c #505052",
"3 c #525253",
"4 c #585858",
"5 c #585859",
"6 c #595959",
"7 c #5A5A5B",
"8 c #5C5C5C",
/* pixels */
"         X%%%%%%X      ",
"                       ",
"   +%%%%%%%%%%%%$$$@   ",
"   -888888888888888<$  ",
"  X-8888888888888888:X ",
"   -88888888888888882@ ",
"   -88888888888888882# ",
"  X-88888721112788882@ ",
"  X-888882X    :88882@ ",
"   -888882X    @88882@ ",
"   -888887>::::,88882@ ",
"   -88888878888888883$ ",
"  X-88888888888888882@ ",
"   -88888888888888882# ",
"   -8888888888888888>X ",
"   -888888888888884*#  ",
"   -888882&%%%%%%%%    ",
"  X-888882X            ",
"  X-888882X            ",
"   -888882+            ",
"   -888882X            ",
"  X-888871X            ",
"   =777772X            ",
"     X  ..             ",
"                       ",
"                       "
};
