/* XPM */
static char *Q[] = {
/* columns rows colors chars-per-pixel */
"23 26 32 1",
"  c #000008",
". c #04040B",
"X c #07070F",
"o c #08080F",
"O c #090911",
"+ c #0E0E14",
"@ c #111117",
"# c #111118",
"$ c #15151B",
"% c #19191F",
"& c #1A1A20",
"* c #1E1E23",
"= c #1E1E24",
"- c #222227",
"; c #232328",
": c #242429",
"> c #2E2E32",
", c #37373A",
"< c #39393D",
"1 c #3E3E41",
"2 c #414143",
"3 c #454548",
"4 c #49494B",
"5 c #4B4B4C",
"6 c #4C4C4E",
"7 c #4F4F51",
"8 c #505052",
"9 c #565657",
"0 c #575757",
"q c #5B5B5B",
"w c #5B5B5C",
"e c #5C5C5C",
/* pixels */
"                       ",
"     ############+     ",
"   $>eeeeeeeeeeee8*X   ",
"  @5eeeeeeeeeeeeee8@   ",
"  *0eeeeeeeeeeeeeeq,   ",
" X3weeeeeeeeeeeeeeq1X  ",
" o4eeeeeq7888qeeeeqq:  ",
" o4eeeee1    6eeeeqq:  ",
" o4eeeee1    6eeeeeq;  ",
" o4eeeee1    6eeeeeq:  ",
" o4weeee1    6eeeewq:  ",
" o5eeeee1    6eewwwq:  ",
" o4eeeee2   .6eeeeeq:  ",
" o4eeeee1    6eeeeeq:  ",
" o4eeeee1    6eeeewq:  ",
" o4eeeee1    6eeeeew:  ",
" o4qqeee0-XXX5eeeewq;  ",
" o4qeeeeeeqeeeeeeeq0=  ",
" X<qeeeeeeeeeeeeeee1X  ",
"  *0eeeeeeeeeeeeee0:   ",
"  X2eqqweeeeeeeeqq,.   ",
"   X&q0qeweeewqqq3X    ",
"       O0weeeq,        ",
"       O0eeeeq,        ",
"       O0eeeew,        ",
"        %&*&&&@        "
};
