/* XPM */
static char *R[] = {
/* columns rows colors chars-per-pixel */
"23 26 31 1",
"  c #000008",
". c #03030B",
"X c #04040C",
"o c #0B0B11",
"O c #0A0A12",
"+ c #0C0C13",
"@ c #101017",
"# c #111118",
"$ c #17171D",
"% c #19191F",
"& c #1B1B20",
"* c #1C1C22",
"= c #212125",
"- c #232328",
"; c #25252A",
": c #26262B",
"> c #2A2A2E",
", c #2F2F34",
"< c #39393C",
"1 c #3F3F42",
"2 c #404043",
"3 c #434345",
"4 c #464648",
"5 c #4C4C4E",
"6 c #4F4F51",
"7 c #535353",
"8 c #535354",
"9 c #575757",
"0 c #575758",
"q c #5B5B5B",
"w c #5C5C5C",
/* pixels */
"                       ",
"                       ",
"  X@###############o   ",
"  $9wwwwwwwwwwwwwww5#  ",
"  $9wwwwwwwwwwwwwwww-  ",
"  $9wwwwwwwwwwwwwwww6o ",
"  $9wwwwwwwwqqwwwwww8o ",
"  $9wwwwq966669wwwww0O ",
"  $9wwwwq;    &9wwww0o ",
"  $9wwwwq;    X1wwww0o ",
"  $9wwwwq5222239wwww8O ",
"  %9wwwwqqwwwqqqwwww0o ",
"  $9wwwwwwwwwwwwwwww7+ ",
"  $9wwwwwwwwwwwwwwww=  ",
"  $9wwwwwwwwwwwwwww6$  ",
"  $9wwwwwwwwwwwwww0;.  ",
"  $9wwww0,#*9wwwww7$   ",
"  $9wwwwq;  >qwwww8%   ",
"  $9wwwwq;  =0wwwww4o  ",
"  $9wwwww;   4wwwwww=  ",
"  $9wwww0;   ;qqwwww2X ",
"  $0wwwww;    ,qwwwq9o ",
"  %8qqq99;    ;q0qwqq<X",
"        X              ",
"                       ",
"                       "
};
