/* XPM */
static char *S[] = {
/* columns rows colors chars-per-pixel */
"23 26 39 1",
"  c #000008",
". c #03030B",
"X c #06060D",
"o c #07070E",
"O c #0C0C13",
"+ c #0F0F15",
"@ c #101017",
"# c #111118",
"$ c #14141A",
"% c #1B1B20",
"& c #1D1D22",
"* c #1E1E24",
"= c #212126",
"- c #242429",
"; c #27272C",
": c #2A2A2E",
"> c #2D2D31",
", c #2F2F34",
"< c #343438",
"1 c #363639",
"2 c #38383B",
"3 c #3B3B3E",
"4 c #3C3C3F",
"5 c #3E3E41",
"6 c #414143",
"7 c #464648",
"8 c #464649",
"9 c #484849",
"0 c #49494B",
"q c #4B4B4C",
"w c #4D4D4F",
"e c #4F4F51",
"r c #505052",
"t c #535354",
"y c #545454",
"u c #575757",
"i c #59595A",
"p c #5B5B5C",
"a c #5C5C5C",
/* pixels */
"                       ",
"                       ",
"    X+##########@@     ",
"    >iaaaaaaaaaaaw@    ",
"   &taaaaaaaaaaaaa6X   ",
"  +waaaaaaaaaaaaaaa2.  ",
"  $iaaaaaaaaapaaaaa0.  ",
"  $iaaaaateeriaaaaa0   ",
"  $iaaaaa%  X6aaaaa0   ",
"  @uaaaaa4>>>>,>,>>-   ",
"  @iaaaaaaaai066;      ",
"  $iaaaaaaaaaaaaur=    ",
"   >iaaaaaaaaaaaaai7X  ",
"   o<8aaaaaaaaaaaaai:  ",
"      ><<2iaaaaaaaaa:  ",
"  O434434$*=-qaaaaaa:  ",
"  $iiaaaa$.  &yaaaaa:  ",
"  $uaaaaar@oO5iaaaai:  ",
"  @uaaaaaaaaaaaaaaaa:  ",
"  $iaaaaaaaaaaaaaaaa:  ",
"  O6aaaaaaaaaaaaaaar$  ",
"   $waaaaaaaaaaaaaa$   ",
"    =yiuiiiiiiiii6@    ",
"      .  . .    .      ",
"                       ",
"                       "
};
