/* XPM */
static char *T[] = {
/* columns rows colors chars-per-pixel */
"23 26 17 1",
"  c #000008",
". c #02020A",
"X c #05050C",
"o c #08080F",
"O c #0C0C13",
"+ c #111118",
"@ c #27272B",
"# c #2D2D31",
"$ c #3E3E40",
"% c #404042",
"& c #424244",
"* c #4F4F51",
"= c #505052",
"- c #515152",
"; c #585859",
": c #5B5B5B",
"> c #5C5C5C",
/* pixels */
"                       ",
"                       ",
"  o+++++++++++++++++O  ",
"  #>>>>>>>>>>>>>>>>>%o ",
"  #>>>>>>>>>>>>>>>>>%X ",
"  #>>>>>>>>>>>>>>>>>%X ",
"  #>>>>>>>>>>>>>>>>>&o ",
"  @*****:>>>>>:===-;#X ",
"        $>>>>>=X       ",
"        %>>>>>=X       ",
"        %>>>>>=X       ",
"        %>>>>>=X       ",
"        %>>>>>=X       ",
"        %>>>>>=X       ",
"        %>>>>>=X       ",
"        %>>>>>=X       ",
"        %>>>>>-o       ",
"        &>>>>>=X       ",
"        &>>>>>-        ",
"        &>>>>>-o       ",
"        &>>>>>=        ",
"        &>>>>>=X       ",
"        #>:>>>*X       ",
"                       ",
"                       ",
"                       "
};
