/* XPM */
static char *U[] = {
/* columns rows colors chars-per-pixel */
"23 26 25 1",
"  c #000008",
". c #04040B",
"X c #06060E",
"o c #090910",
"O c #0C0C13",
"+ c #0F0F16",
"@ c #101017",
"# c #131319",
"$ c #14141B",
"% c #202025",
"& c #26262B",
"* c #2B2B2F",
"= c #2D2D31",
"- c #2F2F33",
"; c #37373A",
": c #48484A",
"> c #4B4B4D",
", c #4D4D4F",
"< c #4E4E4F",
"1 c #505051",
"2 c #565656",
"3 c #565657",
"4 c #575758",
"5 c #5B5B5B",
"6 c #5C5C5C",
/* pixels */
"                       ",
"                       ",
"  .@#+@##X    X#@@@@@  ",
"  #366664=    %566664@ ",
"  #366665*    %666663@ ",
"  #366665*    %666663O ",
"  #366664*    %666653@ ",
"  #366665*    %666663@ ",
"  #366664=    %666663O ",
"  #366664*    %666663@ ",
"  #366665*    %666663@ ",
"  #366664=    %666663@ ",
"  #366665*    %666664O ",
"  #366665*    %666663@ ",
"  #366664*    %666663@ ",
"  #366655*    %666663@ ",
"  #366664=   o>666663+ ",
"  #366666,$XX+3666663+ ",
"  #36666666656666666,O ",
"  O:6666666666666666&  ",
"   -566666666655666,$  ",
"   @166666666665663&   ",
"    o=544644445544;.   ",
"         .... X .      ",
"                       ",
"                       "
};
