/* XPM */
static char *W[] = {
/* columns rows colors chars-per-pixel */
"23 26 44 1",
"  c #000008",
". c #010108",
"X c #03030B",
"o c #04040B",
"O c #05050C",
"+ c #07070F",
"@ c #08080F",
"# c #090910",
"$ c #0B0B12",
"% c #0F0F16",
"& c #0F0F17",
"* c #111117",
"= c #111118",
"- c #16161C",
"; c #18181E",
": c #1A1A20",
"> c #202026",
", c #222228",
"< c #25252A",
"1 c #29292D",
"2 c #2E2E31",
"3 c #313135",
"4 c #37373A",
"5 c #37373C",
"6 c #38383B",
"7 c #3A3A3D",
"8 c #3B3B3D",
"9 c #3F3F41",
"0 c #404042",
"q c #414144",
"w c #444446",
"e c #454548",
"r c #4A4A4B",
"t c #4A4A4C",
"y c #4E4E4F",
"u c #4F4F50",
"i c #515152",
"p c #535354",
"a c #575757",
"s c #575758",
"d c #5A5A5A",
"f c #5B5B5B",
"g c #5B5B5C",
"h c #5C5C5C",
/* pixels */
"                       ",
"                       ",
" %===#   *===%O  *===# ",
"*ihhh0# *iggga; #ahhh6O",
"@9hhhd= ,shhgp- #adhg4O",
" 3hhga= 3ghhha; 1dghg8O",
" 3hhhd* 3ghhhd4 3hhgs: ",
"o2dhhh8 6dhhhg8O3dhda; ",
" =ihgg9&ydhhhd8O8dhhs- ",
" =ihhg9%uhhhhhe:uhhht* ",
" =ighh9%yhhhhhp>uhhh9# ",
" #8ghhi8ddhhhhp>uhhd0O ",
" O8dhha0dhhhhhp9ddhd9O ",
"  4hhhp9dhhhhhswdhhd,  ",
" O4dhhayddhhhhgghhhs<  ",
"  <shhdhhhhhhhhghhhd,  ",
"  :adhhhhhhhhhhhhhgy#  ",
"  :ahhhhhhhddhhhhhdr   ",
"  -ihhhhhha5aghhhhhrO  ",
"   whhhhhht>adhhhhg8   ",
"   whhhhhht-thhhhhg:   ",
"   whhhhhd2#qghhhhg:   ",
"   ;addsds<O9shddsd:   ",
"     O   O      X      ",
"                       ",
"                       "
};
