/* XPM */
static char *X[] = {
/* columns rows colors chars-per-pixel */
"23 26 42 1",
"  c #000008",
". c #03030B",
"X c #04040B",
"o c #05050D",
"O c #08080F",
"+ c #090910",
"@ c #0C0C13",
"# c #101017",
"$ c #111118",
"% c #131319",
"& c #16161C",
"* c #18181E",
"= c #1A1A20",
"- c #1D1D23",
"; c #212127",
": c #222227",
"> c #242428",
", c #25252B",
"< c #26262B",
"1 c #2A2A2E",
"2 c #2D2D31",
"3 c #323236",
"4 c #333337",
"5 c #343437",
"6 c #363639",
"7 c #39393C",
"8 c #3D3D3F",
"9 c #3D3D40",
"0 c #414144",
"q c #444446",
"w c #474749",
"e c #49494B",
"r c #4B4B4C",
"t c #4D4D4E",
"y c #4F4F50",
"u c #525253",
"i c #535354",
"p c #565657",
"a c #575758",
"s c #585858",
"d c #5B5B5B",
"f c #5C5C5C",
/* pixels */
"                       ",
"                       ",
" o#$$$$#$+   +$$$$###o ",
" &edfffff9+ @0fffffde$ ",
" o>uffffdd3o6dfffffd3O ",
"  O3dfffddd1tfffffft-o ",
"   #0dfffffddfffddd1X  ",
"   @7dffffffffffdd7O   ",
"    =eddfffffffff0*    ",
"    o1udffffffffp6+    ",
"     O8dfffffdffu:     ",
"      3dfffffddd6o     ",
"      +rffffffdwO      ",
"      $tfffffffr$      ",
"      6afffffffd9+     ",
"     $0dffffffddi2o    ",
"    +5pdffffffffa6+    ",
"    :ufdffffffffdy:    ",
"   %0ffffffdffffdf0$   ",
"  o1dffffffuadffffd3+  ",
"  @8dfffffi-rdddffdu>o ",
" O2pddffdd: >dfdfffd4+ ",
" =udddddf2o o6dddafat* ",
"        o      X  o    ",
"                       ",
"                       "
};
