/* XPM */
static char *Y[] = {
/* columns rows colors chars-per-pixel */
"23 26 40 1",
"  c #000008",
". c #03030B",
"X c #04040B",
"o c #05050C",
"O c #07070F",
"+ c #0B0B11",
"@ c #0A0A12",
"# c #0E0E15",
"$ c #111117",
"% c #14141A",
"& c #19191F",
"* c #1B1B21",
"= c #1C1C21",
"- c #1F1F24",
"; c #222227",
": c #242428",
"> c #242429",
", c #28282D",
"< c #2B2B2F",
"1 c #2F2F33",
"2 c #2F2F34",
"3 c #303034",
"4 c #343438",
"5 c #3D3D3F",
"6 c #3E3E42",
"7 c #414142",
"8 c #434345",
"9 c #474748",
"0 c #484849",
"q c #4E4E4F",
"w c #4F4F51",
"e c #515152",
"r c #525253",
"t c #565656",
"y c #575757",
"u c #575758",
"i c #585859",
"p c #5B5B5B",
"a c #5B5B5C",
"s c #5C5C5C",
/* pixels */
"                       ",
"  #%%$$$+    #$%%%$+   ",
" #6issii7#  %9iiiit4+  ",
" o3isssse*  =ssssst;   ",
"  =qssssi3oo9ssssi0#   ",
"  o4isssse&3iisssi;    ",
"   <tssssi>6ssssse%    ",
"   +7isssseissssi1X    ",
"    ;isssssssssse%     ",
"    #0sssssssssi6+     ",
"    X<tsssssssse*      ",
"     &essssssss0#      ",
"     +5issssssy<o      ",
"      =tssssss0$       ",
"      +9sssssi3O       ",
"       3ssssie:X       ",
"       >ssssse-        ",
"      X>isssae-X       ",
"       >asssse=        ",
"      X>asssse=        ",
"       >isssse;        ",
"      X>aaaaie=        ",
"       ;wwere0=        ",
"        ..             ",
"                       ",
"                       "
};
