/* XPM */
static char *Z[] = {
/* columns rows colors chars-per-pixel */
"23 26 35 1",
"  c #000008",
". c #03030B",
"X c #04040C",
"o c #06060D",
"O c #06060E",
"+ c #090910",
"@ c #0B0B12",
"# c #0F0F16",
"$ c #111118",
"% c #121218",
"& c #14141A",
"* c #19191F",
"= c #1A1A21",
"- c #1C1C22",
"; c #252529",
": c #26262A",
"> c #2E2E33",
", c #303034",
"< c #363639",
"1 c #38383B",
"2 c #3C3C3E",
"3 c #414143",
"4 c #48484A",
"5 c #4A4A4C",
"6 c #4C4C4E",
"7 c #4F4F50",
"8 c #4F4F51",
"9 c #505052",
"0 c #535355",
"q c #565657",
"w c #575757",
"e c #575758",
"r c #5A5A5A",
"t c #5B5B5B",
"y c #5C5C5C",
/* pixels */
"                       ",
"                       ",
"   @$$$$$$$$$$$$$$$$&  ",
"  X1yyyyyyyyyyyyyyyy9X ",
"  X1yyyyyyyyyyyyyyyy9+ ",
"  X1yyyyyyyyyyyyyyyy9X ",
"  X1yyyyyyyyyyyyyyyy6X ",
"   ,9998889ryyyyyyyy4X ",
"         X-9yyyyyyy9&  ",
"         ,ryyyyyyy2-   ",
"        ;qyyyyyyy3@    ",
"       $9yyyyyyy9&     ",
"      @3yyyyyyyr;      ",
"      >yyyyyyy6<       ",
"     ;ryyyyyy6$        ",
"    -0yyyyyyq;         ",
"   #4yyyyyyt<.         ",
"  *rryyyyyy5#XXX#XXXX  ",
"  =yyyyyyyyytyyyryyy9X ",
"  =yyyyyyyyytyyytyyy9@ ",
"  =yyyyyyyyyyyyyyyyy9@ ",
"  =ryyyyttyyyyyyyyyr9X ",
"  =rrrrererrrererqrr6X ",
"     X  X  X  X   X    ",
"                       ",
"                       "
};
